<svg width="22" height="28" viewBox="0 0 22 28" fill="none" xmlns="http://www.w3.org/2000/svg">
<path d="M10.9997 0.666748C8.1707 0.666748 5.45759 1.79055 3.4572 3.79094C1.45681 5.79133 0.333008 8.50444 0.333008 11.3334C0.333008 18.5334 9.73301 26.6667 10.133 27.0134C10.3745 27.22 10.6819 27.3335 10.9997 27.3335C11.3175 27.3335 11.6248 27.22 11.8663 27.0134C12.333 26.6667 21.6663 18.5334 21.6663 11.3334C21.6663 8.50444 20.5425 5.79133 18.5421 3.79094C16.5418 1.79055 13.8286 0.666748 10.9997 0.666748ZM10.9997 24.2001C8.15967 21.5334 2.99967 15.7867 2.99967 11.3334C2.99967 9.21168 3.84253 7.17685 5.34282 5.67656C6.84311 4.17627 8.87794 3.33341 10.9997 3.33341C13.1214 3.33341 15.1562 4.17627 16.6565 5.67656C18.1568 7.17685 18.9997 9.21168 18.9997 11.3334C18.9997 15.7867 13.8397 21.5467 10.9997 24.2001ZM10.9997 6.00008C9.94484 6.00008 8.9137 6.31288 8.03663 6.89891C7.15957 7.48494 6.47598 8.3179 6.07232 9.29244C5.66865 10.267 5.56303 11.3393 5.76882 12.3739C5.97461 13.4085 6.48256 14.3588 7.22844 15.1047C7.97432 15.8505 8.92463 16.3585 9.95919 16.5643C10.9938 16.7701 12.0661 16.6644 13.0407 16.2608C14.0152 15.8571 14.8481 15.1735 15.4342 14.2965C16.0202 13.4194 16.333 12.3882 16.333 11.3334C16.333 9.91893 15.7711 8.56237 14.7709 7.56218C13.7707 6.56198 12.4142 6.00008 10.9997 6.00008ZM10.9997 14.0001C10.4723 14.0001 9.95669 13.8437 9.51815 13.5507C9.07962 13.2577 8.73783 12.8412 8.53599 12.3539C8.33416 11.8666 8.28135 11.3305 8.38425 10.8132C8.48714 10.2959 8.74112 9.82074 9.11406 9.4478C9.487 9.07486 9.96215 8.82088 10.4794 8.71799C10.9967 8.61509 11.5329 8.6679 12.0202 8.86974C12.5074 9.07157 12.9239 9.41336 13.2169 9.85189C13.5099 10.2904 13.6663 10.806 13.6663 11.3334C13.6663 12.0407 13.3854 12.7189 12.8853 13.219C12.3852 13.7191 11.7069 14.0001 10.9997 14.0001Z" fill="#73A72E"/>
</svg>
