<svg width="28" height="28" viewBox="0 0 28 28" fill="none" xmlns="http://www.w3.org/2000/svg">
<path d="M23.9201 15.3332C23.6268 15.3332 23.3201 15.2399 23.0268 15.1732C22.4328 15.0423 21.849 14.8686 21.2801 14.6532C20.6616 14.4282 19.9817 14.4399 19.3712 14.686C18.7608 14.9322 18.2629 15.3954 17.9735 15.9866L17.6801 16.5866C16.3815 15.8641 15.1881 14.9669 14.1335 13.9199C13.0865 12.8653 12.1892 11.6719 11.4668 10.3732L12.0268 9.99991C12.618 9.71046 13.0812 9.21261 13.3273 8.60216C13.5735 7.99171 13.5852 7.31179 13.3601 6.69324C13.1484 6.12314 12.9747 5.53964 12.8401 4.94657C12.7735 4.65324 12.7201 4.34657 12.6801 4.03991C12.5182 3.10073 12.0263 2.25023 11.293 1.64156C10.5596 1.03289 9.63306 0.706051 8.68013 0.719905H4.68013C4.10551 0.71451 3.53647 0.83299 3.01175 1.06728C2.48703 1.30157 2.01895 1.64617 1.63937 2.07761C1.2598 2.50906 0.977647 3.01723 0.812118 3.56752C0.64659 4.11782 0.601574 4.69732 0.680134 5.26657C1.39045 10.8524 3.94151 16.0424 7.93034 20.0168C11.9192 23.9911 17.1184 26.5233 22.7068 27.2132H23.2135C24.1967 27.2147 25.146 26.8539 25.8801 26.1999C26.302 25.8226 26.6389 25.3601 26.8688 24.843C27.0986 24.3259 27.2161 23.7658 27.2135 23.1999V19.1999C27.1971 18.2738 26.8599 17.382 26.2593 16.6768C25.6586 15.9716 24.8319 15.4967 23.9201 15.3332ZM24.5868 23.3332C24.5866 23.5226 24.546 23.7096 24.4678 23.8821C24.3897 24.0545 24.2757 24.2083 24.1335 24.3332C23.9849 24.4626 23.8108 24.5591 23.6224 24.6166C23.434 24.674 23.2356 24.691 23.0401 24.6666C18.0467 24.0263 13.4085 21.7419 9.85709 18.1736C6.30573 14.6054 4.04335 9.95636 3.4268 4.95991C3.40558 4.7646 3.42418 4.56701 3.48147 4.37909C3.53876 4.19117 3.63356 4.01682 3.76013 3.86657C3.88508 3.72435 4.03888 3.61036 4.21131 3.5322C4.38373 3.45403 4.57082 3.41348 4.76013 3.41324H8.76013C9.0702 3.40634 9.37297 3.50775 9.61633 3.7C9.85969 3.89225 10.0284 4.16333 10.0935 4.46657C10.1468 4.83102 10.2135 5.19102 10.2935 5.54657C10.4475 6.24943 10.6525 6.94015 10.9068 7.61324L9.04013 8.47991C8.88053 8.55313 8.73696 8.65717 8.61768 8.78603C8.49839 8.9149 8.40574 9.06606 8.34503 9.23083C8.28432 9.39561 8.25676 9.57075 8.26393 9.7462C8.2711 9.92166 8.31286 10.094 8.3868 10.2532C10.3057 14.3636 13.6098 17.6676 17.7201 19.5866C18.0448 19.7199 18.4089 19.7199 18.7335 19.5866C18.8998 19.5271 19.0526 19.4352 19.183 19.3162C19.3135 19.1971 19.419 19.0534 19.4935 18.8932L20.3201 17.0266C21.0094 17.2731 21.7129 17.4779 22.4268 17.6399C22.7824 17.7199 23.1424 17.7866 23.5068 17.8399C23.81 17.905 24.0811 18.0737 24.2734 18.317C24.4656 18.5604 24.567 18.8632 24.5601 19.1732L24.5868 23.3332Z" fill="#73A72E"/>
</svg>
